<?xml version="1.0" encoding="UTF-8"?>
<svg width="30px" height="38px" viewBox="0 0 30 38" version="1.1" xmlns="http://www.w3.org/2000/svg" xmlns:xlink="http://www.w3.org/1999/xlink">
    <!-- Generator: Sketch 55.2 (78181) - https://sketchapp.com -->
    <title>Marker</title>
    <desc>Created with Sketch.</desc>
    <defs>
        <filter x="-3.9%" y="-5.5%" width="107.7%" height="110.9%" filterUnits="objectBoundingBox" id="filter-1">
            <feOffset dx="0" dy="2" in="SourceAlpha" result="shadowOffsetOuter1"></feOffset>
            <feGaussianBlur stdDeviation="2" in="shadowOffsetOuter1" result="shadowBlurOuter1"></feGaussianBlur>
            <feColorMatrix values="0 0 0 0 0   0 0 0 0 0   0 0 0 0 0  0 0 0 0.5 0" type="matrix" in="shadowBlurOuter1" result="shadowMatrixOuter1"></feColorMatrix>
            <feMerge>
                <feMergeNode in="shadowMatrixOuter1"></feMergeNode>
                <feMergeNode in="SourceGraphic"></feMergeNode>
            </feMerge>
        </filter>
    </defs>
    <g id="Card-design-" stroke="none" stroke-width="1" fill="none" fill-rule="evenodd">
        <g id="3.0-Mobile-Program-Page---Favourites" transform="translate(-280.000000, -343.000000)" fill="#F35A68" fill-rule="nonzero">
            <g id="Card-1" filter="url(#filter-1)" transform="translate(32.000000, 297.000000)">
                <g id="Location" transform="translate(246.000000, 48.000000)">
                    <g id="Location_icon">
                        <path d="M17,0 C10.9248657,0 6,4.9248657 6,11 C6,13.5988159 6.8286133,16.1298828 8.3654785,18.2255859 L17,30 L25.6345215,18.2255859 C27.1713867,16.1298828 28,13.5988159 28,11 C28,4.9248657 23.0751343,0 17,0 Z M17,15 C14.7908325,15 13,13.2091064 13,11 C13,8.7908325 14.7908325,7 17,7 C19.2091675,7 21,8.7908325 21,11 C21,13.2091064 19.2091675,15 17,15 Z" id="Marker"></path>
                    </g>
                </g>
            </g>
        </g>
    </g>
</svg>